<svg id="Layer_4" data-name="Layer 4" xmlns="http://www.w3.org/2000/svg" viewBox="0 0 931.56 254.31"><defs><style>.cls-1{fill:#090;}.cls-2{fill:#fff;}.cls-3{fill:none;stroke:#fff;stroke-width:5.91px;}</style></defs><path class="cls-1" d="M419.73,140.82Q425,137,434.53,137q14,0,19.1,4.42t5.06,14.82v3.59a83.61,83.61,0,0,1-10.13,3.41h45.29v-1.13q0-23.59-4.75-32.44t-16.42-14.58q-11.67-5.75-35.5-5.74-26.25,0-39.56,9.5t-18.77,29.29l32.26,5.94Q414.42,144.62,419.73,140.82Z" transform="translate(-28.99 -59.86)"/><rect class="cls-1" x="304.99" y="0.52" width="34.63" height="102.88"/><polygon class="cls-1" points="550.23 102.7 596.2 52.67 552.47 52.67 510.64 100.91 510.64 0.52 475.11 0.52 475.11 103.41 550.63 103.41 550.23 102.7"/><rect class="cls-1" x="596.5" y="52.67" width="35.54" height="50.73"/><rect class="cls-1" x="895.85" y="52.67" width="35.54" height="50.73"/><rect class="cls-1" x="683.25" y="52.67" width="35.54" height="50.73"/><polygon class="cls-2" points="304.99 127.43 296.69 113.64 256.22 113.64 302.19 189.63 339.62 189.63 339.62 113.64 304.99 113.64 304.99 127.43"/><path class="cls-2" d="M759.79,249.5h35.54V207.16c0-14.2.37-25.39,1.11-33.66H759.79Z" transform="translate(-28.99 -59.86)"/><path class="cls-2" d="M709.58,207.27a25.86,25.86,0,0,1-9.89,12.63,27.73,27.73,0,0,1-16.35,5.1q-8,0-13.18-3.8A19.29,19.29,0,0,1,663,210.87q-2-6.51-2-35.4v-2H625.49v25.74q0,19.35,4.81,30.32a35.65,35.65,0,0,0,15.59,17,48.79,48.79,0,0,0,24.32,6.06,53.16,53.16,0,0,0,25.26-6.35A52.39,52.39,0,0,0,714.79,229V249.5h33v-76H712.22C712.12,191.21,711.25,202.52,709.58,207.27Z" transform="translate(-28.99 -59.86)"/><path class="cls-2" d="M922.17,207.27a25.86,25.86,0,0,1-9.89,12.63,27.73,27.73,0,0,1-16.35,5.1q-8,0-13.19-3.8a19.32,19.32,0,0,1-7.15-10.33q-2-6.51-2-35.4v-2H838.08v25.74q0,19.35,4.82,30.32a35.53,35.53,0,0,0,15.58,17,48.81,48.81,0,0,0,24.32,6.06,53.23,53.23,0,0,0,25.27-6.35A52.36,52.36,0,0,0,927.38,229V249.5h33v-76H924.82C924.72,191.21,923.84,202.52,922.17,207.27Z" transform="translate(-28.99 -59.86)"/><rect class="cls-2" x="192.36" y="113.64" width="34.63" height="75.99"/><polygon class="cls-2" points="475.11 113.64 475.11 189.63 510.64 189.63 510.64 145.78 527.24 127.99 561.03 189.63 599.49 189.63 556.42 113.64 475.11 113.64"/><polygon class="cls-1" points="228.64 0.52 192.36 0.52 192.36 103.41 226.99 103.41 226.99 65.32 250.02 103.41 290.54 103.41 228.64 0.52"/><path class="cls-2" d="M493.32,204.47l.4-31H405.53a73,73,0,0,0-9.63,3.76,35.86,35.86,0,0,0-15.24,14A39.83,39.83,0,0,0,375.22,212q0,17.61,11.95,29.12t32.7,11.52A54.83,54.83,0,0,0,442,248.12a64.17,64.17,0,0,0,19.48-13.6c.26.69.67,2.12,1.27,4.26q2,7.09,3.41,10.72h35.18A79.23,79.23,0,0,1,495,231.11Q493.32,222.55,493.32,204.47Zm-34.63-13.78q0,13.13-1.39,17.78a22.88,22.88,0,0,1-8.47,12.08Q440.1,227,430.49,227a19.17,19.17,0,0,1-14.17-5.59,18.08,18.08,0,0,1-5.56-13.23q0-7.78,7-12.85,4.54-3.12,19.34-6.36a218.31,218.31,0,0,0,21.63-5.58Z" transform="translate(-28.99 -59.86)"/><path class="cls-1" d="M831,110.11a40.82,40.82,0,0,0-7.58-.73,27.56,27.56,0,0,0-15.4,4.42q-6.79,4.41-15.28,18.2V112.53h-33v50.74h38.07c.15-.71.29-1.45.46-2.05q3-11,8.16-15.17a19.53,19.53,0,0,1,12.68-4.19A26.76,26.76,0,0,1,831,145Z" transform="translate(-28.99 -59.86)"/><path class="cls-1" d="M839.34,112.53l-1.26-.46v51.2h35.54V112.53Z" transform="translate(-28.99 -59.86)"/><line class="cls-3" x1="100.62" y1="232.15" x2="809.21" y2="232.15"/><path class="cls-2" d="M868.26,314.17h-9.19V303.31h9.19Z" transform="translate(-28.99 -59.86)"/><path class="cls-2" d="M890.62,264.44l7.1,35.1h.14l7.18-35.1h14.83v49.73h-9.19v-39.7h-.14l-8.85,39.7h-7.8l-8.84-39.7h-.14v39.7h-9.19V264.44Z" transform="translate(-28.99 -59.86)"/><path class="cls-2" d="M936,264.44l6.41,16.09,6.33-16.09h10.94L948.15,289l12.4,25.14H949.26l-7.17-16.85L935,314.17H924L936.38,289,925,264.44Z" transform="translate(-28.99 -59.86)"/><path class="cls-2" d="M126.84,90.86c-1.64.82-3.25,1.64-4.81,2.44l3.86,8.56q2.34-1.32,4.73-2.61Z" transform="translate(-28.99 -59.86)"/><path class="cls-2" d="M134.53,87.06l-4.84,2.37,3.74,8.3c1.58-.85,3.17-1.7,4.77-2.53Z" transform="translate(-28.99 -59.86)"/><path class="cls-2" d="M104.05,102.92c-1.69.94-3.28,1.84-4.71,2.65l4.45,9.89c1.48-1,3-2,4.55-3Z" transform="translate(-28.99 -59.86)"/><path class="cls-2" d="M150.09,79.84q-2.47,1.09-4.91,2.21l3.51,7.79c1.61-.81,3.23-1.6,4.83-2.39Z" transform="translate(-28.99 -59.86)"/><path class="cls-2" d="M142.28,83.38c-1.64.77-3.27,1.53-4.88,2.3l3.63,8c1.6-.83,3.21-1.65,4.81-2.46Z" transform="translate(-28.99 -59.86)"/><path class="cls-2" d="M96.71,120.61q2.13-1.64,4.43-3.29l-4.58-10.15c-1.92,1.1-3.5,2-4.68,2.73Z" transform="translate(-28.99 -59.86)"/><path class="cls-2" d="M119.19,94.77c-1.64.85-3.24,1.7-4.78,2.51l4,8.89q2.31-1.38,4.68-2.73Z" transform="translate(-28.99 -59.86)"/><path class="cls-2" d="M111.6,98.79c-1.66.89-3.25,1.76-4.75,2.58l4.2,9.31c1.51-1,3-1.91,4.62-2.87Z" transform="translate(-28.99 -59.86)"/><path class="cls-2" d="M158,76.44q-2.5,1.05-5,2.12l3.37,7.49c1.63-.79,3.26-1.58,4.86-2.34Z" transform="translate(-28.99 -59.86)"/><path class="cls-2" d="M90,113.56l3.14,9.88,1-.78Z" transform="translate(-28.99 -59.86)"/><path class="cls-2" d="M198.63,62.32l-.51.13c-1.58.41-3.16.84-4.76,1.29L195.28,68l4.9-2.24Z" transform="translate(-28.99 -59.86)"/><path class="cls-2" d="M201.77,61.52l1.3,2.88C212.66,59.86,214.36,58.4,201.77,61.52Z" transform="translate(-28.99 -59.86)"/><path class="cls-2" d="M173.93,70.13q-2.53.93-5.05,1.9l3,6.66,4.89-2.26Z" transform="translate(-28.99 -59.86)"/><path class="cls-2" d="M165.91,73.2c-1.68.66-3.34,1.33-5,2l3.21,7.13L169,80Z" transform="translate(-28.99 -59.86)"/><path class="cls-2" d="M182.05,67.28q-2.55.85-5.11,1.77l2.73,6,4.9-2.24Z" transform="translate(-28.99 -59.86)"/><path class="cls-2" d="M190.28,64.66q-2.58.77-5.18,1.61l2.37,5.27,4.91-2.23Z" transform="translate(-28.99 -59.86)"/><path class="cls-2" d="M186.67,158c-9.12-4-18.25-16.58-58-11.94,0,0-24.11-18.57-34.53-20.56-1.32-.25-1.59-1-1-2.08l-3.83-12A274.51,274.51,0,0,0,29,160s.65,6.63,9.12,6.63,14.33,4,26.06-2c0,0,11.08,18.58,28.67,31.18s17.59,25.87,17.59,31.84-22.8,13.27-24.1,18.57S115.65,281.4,117,285.38c1.24,3.78-1.63,13.52,6.44,13.37l6.69-3.89.07.1c1.56-4.09-1.58-10.2-4.73-11.57-4.56-2-20.85-25.21-20.2-28.52s15.64-12.61,26.72-12.61,29.32,2.66,31.27-20.56,3.26-49.08,22.15-54.39C185.36,167.31,195.79,162,186.67,158Z" transform="translate(-28.99 -59.86)"/><path class="cls-2" d="M66.8,134.12s3-4.3,4.3-3.71a15.71,15.71,0,0,0,4.4,1.27c.49-.1-.29,1.86-1.27,2.83a3.62,3.62,0,0,1-3.72.69C69.73,134.71,67.58,133.73,66.8,134.12Z" transform="translate(-28.99 -59.86)"/></svg>